<?xml version="1.0" encoding="UTF-8"?>
<svg version="1.1" xmlns="http://www.w3.org/2000/svg" width="1024" height="1024">
<path d="M0 0 C5.70201862 2.15552885 9.08995159 5.64551092 12 11 C13.16035505 14.48106514 13.12002704 17.1847233 13.11352539 20.8581543 C13.11364593 21.56228108 13.11376646 22.26640787 13.11389065 22.99187183 C13.11314473 25.26935302 13.10553109 27.54675221 13.09765625 29.82421875 C13.09618584 31.23099732 13.09516574 32.63777644 13.09460449 34.04455566 C13.08936311 39.25887879 13.0754019 44.4731902 13.0625 49.6875 C13.041875 61.340625 13.02125 72.99375 13 85 C38.08 85 63.16 85 89 85 C88.841896 61.9939512 88.841896 61.9939512 88.63964844 38.98828125 C88.62158203 34.51757812 88.62158203 34.51757812 88.6182251 32.41821289 C88.61212165 30.96601444 88.59813443 29.51383504 88.57769775 28.06176758 C88.37368644 12.79006351 88.37368644 12.79006351 93 6 C98.60702732 0.67332404 103.26309981 -0.57031443 110.8828125 -0.44921875 C117.0074598 0.43340586 121.31395023 3.78705967 125 8.625 C126.90088712 13.13960691 127.12235462 16.97083305 127.11352539 21.87988281 C127.11367142 22.56321686 127.11381744 23.2465509 127.1139679 23.95059204 C127.11327315 26.20146904 127.10550132 28.45226252 127.09765625 30.703125 C127.09579051 32.2668249 127.09436734 33.83052538 127.09336853 35.39422607 C127.08955562 39.50416689 127.0797358 43.61407221 127.06866455 47.72399902 C127.05842407 51.92016113 127.05386526 56.11632899 127.04882812 60.3125 C127.03811242 68.54168293 127.02105073 76.77083705 127 85 C128.84561523 84.9685791 128.84561523 84.9685791 130.72851562 84.93652344 C135.3205183 84.86378401 139.91247065 84.81807729 144.50488281 84.78027344 C146.48739199 84.76023503 148.46984263 84.73299647 150.45214844 84.69824219 C153.31199641 84.64938046 156.17105881 84.62695327 159.03125 84.609375 C159.90865845 84.58872986 160.78606689 84.56808472 161.69006348 84.54681396 C168.2386581 84.54445937 173.52151662 85.94405683 178.52697754 90.3414917 C185.18719721 97.60935163 184.29470275 106.59937632 184.265625 115.83203125 C184.26697617 117.19138152 184.26892044 118.55073132 184.27142334 119.91007996 C184.27436439 122.75870364 184.27011731 125.60720156 184.26074219 128.45581055 C184.24946618 132.05184986 184.25603132 135.64758952 184.26761436 139.24361801 C184.37090452 176.87662283 179.97935938 207.92573942 152.96875 236.08203125 C135.58208683 253.54363693 109.47766579 264.91732094 84.81323242 265.1159668 C83.03560704 265.1081971 81.25799858 265.09422011 79.48046875 265.07421875 C78.10586487 265.06618225 78.10586487 265.06618225 76.70349121 265.0579834 C74.46889401 265.04414012 72.23449891 265.02471105 70 265 C70.00888245 265.87172852 70.01776489 266.74345703 70.0269165 267.64160156 C70.10725738 275.88009575 70.1680632 284.11845727 70.20724869 292.35725403 C70.22807209 296.59234407 70.25629279 300.82710884 70.30175781 305.06201172 C70.34540424 309.15339326 70.36917653 313.24446307 70.37950897 317.33605957 C70.3868668 318.89250593 70.40123476 320.44893635 70.42292023 322.00524902 C70.6262446 337.21003769 70.6262446 337.21003769 66 344 C60.33873602 349.37820078 55.72725172 350.51940095 48.046875 350.37890625 C41.8723169 349.61104454 38.3059058 346.6742382 34.5625 341.875 C32.12356374 337.38735727 31.87752677 334.19737299 31.88647461 329.1418457 C31.88632858 328.44890411 31.88618256 327.75596252 31.8860321 327.04202271 C31.88672837 324.75324363 31.8945074 322.4645461 31.90234375 320.17578125 C31.90420894 318.58823186 31.90563237 317.00068189 31.90663147 315.41313171 C31.91044866 311.2357728 31.92027214 307.05844869 31.93133545 302.88110352 C31.94156672 298.61800609 31.94613277 294.35490304 31.95117188 290.09179688 C31.96189511 281.72784862 31.97896197 273.36392864 32 265 C31.41883423 265.00883713 30.83766846 265.01767426 30.2388916 265.02677917 C8.94926762 265.30805096 8.94926762 265.30805096 0.5 263.3125 C-0.73302856 263.04131348 -0.73302856 263.04131348 -1.9909668 262.76464844 C-26.81642876 257.04824315 -50.21855011 242.2815551 -64.3203125 220.7578125 C-64.87460937 219.84773437 -65.42890625 218.93765625 -66 218 C-66.98613281 216.38738281 -66.98613281 216.38738281 -67.9921875 214.7421875 C-72.03193468 207.82644557 -75.00765186 200.77495245 -77.375 193.125 C-77.61355713 192.37234863 -77.85211426 191.61969727 -78.09790039 190.84423828 C-83.06385215 173.66890098 -82.34622931 155.56795721 -82.31567383 137.86816406 C-82.30983157 134.20927139 -82.32697296 130.55087716 -82.3500185 126.89206696 C-82.36481462 124.03854495 -82.36562064 121.18514231 -82.36250877 118.33158875 C-82.36326106 116.33484664 -82.37704569 114.33812282 -82.39118958 112.34143066 C-82.35238733 104.70544958 -82.21651842 97.13879029 -77.3515625 90.87890625 C-76.78179687 90.44449219 -76.21203125 90.01007813 -75.625 89.5625 C-75.06039063 89.11003906 -74.49578125 88.65757812 -73.9140625 88.19140625 C-68.4124513 84.76693397 -63.63306543 84.73175203 -57.32421875 84.8046875 C-55.93648003 84.80893234 -55.93648003 84.80893234 -54.52070618 84.81326294 C-51.57617058 84.82442608 -48.63194312 84.84952363 -45.6875 84.875 C-43.68685336 84.88503479 -41.68620194 84.89415977 -39.68554688 84.90234375 C-34.7902465 84.92435278 -29.89517543 84.95885609 -25 85 C-25.00666183 84.13857895 -25.01332367 83.2771579 -25.02018738 82.38963318 C-25.08040999 74.25381609 -25.12603099 66.11807436 -25.15543652 57.98208523 C-25.17106266 53.79972731 -25.19224477 49.61755427 -25.22631836 45.43530273 C-25.25902123 41.39581051 -25.27687595 37.35649562 -25.28463173 33.31688118 C-25.2901557 31.77916741 -25.30094261 30.24146285 -25.31719017 28.703825 C-25.33911051 26.54249308 -25.34196096 24.38188497 -25.34057617 22.22045898 C-25.34723801 20.99246078 -25.35389984 19.76446259 -25.36076355 18.49925232 C-24.67875025 11.88401463 -22.09161842 7.36424436 -17 3 C-11.4991644 -0.84778314 -6.52918173 -0.89765663 0 0 Z M-44 123 C-45.84583563 166.12730102 -45.84583563 166.12730102 -30 203 C-29.29875 203.99 -28.5975 204.98 -27.875 206 C-17.57222728 217.84983444 -1.58719253 225.81075068 13.9770546 227.17304611 C19.16563155 227.45867214 24.35594499 227.44624466 29.55078125 227.43359375 C31.22023223 227.43817033 32.88968133 227.4434802 34.55912781 227.44947815 C38.03941554 227.45835279 41.51947313 227.45605215 44.99975586 227.44604492 C49.41373857 227.4345766 53.82691862 227.45476282 58.24079609 227.48396206 C61.68396375 227.502496 65.12694524 227.50199757 68.57015038 227.49632454 C70.19530549 227.49617334 71.82047492 227.50204684 73.44558144 227.51461601 C93.30267387 227.64658608 112.31826409 223.35391406 127 209 C150.3173536 183.11575635 146 158.85103621 146 123 C83.3 123 20.6 123 -44 123 Z " fill="#A017F4" transform="translate(461,465)"/>
<path d="M0 0 C5.04361719 2.86285319 8.66469654 6.68686867 10.67578125 12.1640625 C11.83853883 19.31553614 10.74309826 24.17024744 6.67578125 30.1640625 C4.73713956 32.75594591 2.68961505 35.24425713 0.61328125 37.7265625 C-0.54781892 39.13463884 -1.70795791 40.54350826 -2.8671875 41.953125 C-3.73609619 43.00741699 -3.73609619 43.00741699 -4.62255859 44.08300781 C-7.19016246 47.22307314 -9.6996634 50.40721849 -12.19921875 53.6015625 C-12.61437744 54.13144775 -13.02953613 54.66133301 -13.45727539 55.20727539 C-15.97403975 58.42504949 -18.48089225 61.65054204 -20.98876953 64.87524414 C-21.61470001 65.68006729 -22.24063049 66.48489044 -22.88552856 67.31410217 C-23.36029633 67.92458908 -23.83506409 68.53507599 -24.32421875 69.1640625 C-23.40459854 69.17286186 -23.40459854 69.17286186 -22.46640015 69.18183899 C-16.07446671 69.24586707 -9.68303237 69.33031128 -3.29150391 69.42651367 C-0.90745634 69.45972896 1.47666922 69.48777142 3.86083984 69.51049805 C7.29167864 69.54410568 10.72180488 69.59642657 14.15234375 69.65234375 C15.215065 69.65873367 16.27778625 69.6651236 17.37271118 69.67170715 C23.7869409 69.79859728 28.54735949 70.34313519 33.50390625 74.8125 C37.15718415 79.24862317 39.37782352 82.58176218 40.05078125 88.4140625 C39.10995622 97.82231277 33.68916411 103.85477265 27.6640625 110.71875 C24.74918654 114.04383982 22.00959512 117.48277169 19.30078125 120.9765625 C15.32112439 126.0912195 11.27467971 131.14444942 7.17578125 136.1640625 C3.12583346 141.1263481 -0.88055167 146.11691871 -4.82421875 151.1640625 C-6.17185927 152.87910613 -7.52042226 154.59342109 -8.86914062 156.30761719 C-9.90019506 157.62307657 -10.92713107 158.94176873 -11.95117188 160.26269531 C-13.64769894 162.44714434 -15.35966754 164.61874452 -17.07421875 166.7890625 C-17.85249023 167.80226563 -17.85249023 167.80226563 -18.64648438 168.8359375 C-22.61473064 173.81767488 -26.46516174 177.00062357 -32.6953125 178.87890625 C-38.15185748 179.46685155 -42.57901779 179.10109215 -47.32421875 176.1640625 C-52.15276123 171.81730364 -55.02059 167.38252725 -55.63671875 160.8515625 C-54.94981849 152.74613942 -51.46747687 147.51638276 -46.32421875 141.5390625 C-45.15259604 140.13889861 -43.98204198 138.73783988 -42.8125 137.3359375 C-42.22678223 136.63919922 -41.64106445 135.94246094 -41.03759766 135.22460938 C-38.46412332 132.12969297 -35.98422568 128.9648327 -33.51171875 125.7890625 C-29.15945409 120.21207472 -24.75027857 114.68267875 -20.32421875 109.1640625 C-20.88052475 109.15819626 -21.43683075 109.15233002 -22.00999451 109.14628601 C-27.8347054 109.08202363 -33.65888044 108.997522 -39.4831543 108.90161133 C-41.65267848 108.86849252 -43.82228613 108.84042057 -45.99194336 108.81762695 C-49.12259264 108.78384038 -52.25248601 108.73151272 -55.3828125 108.67578125 C-56.34255478 108.66939133 -57.30229706 108.6630014 -58.29112244 108.65641785 C-65.67867639 108.49751921 -72.37320661 107.60185514 -78.19921875 102.7890625 C-78.90046875 101.9228125 -79.60171875 101.0565625 -80.32421875 100.1640625 C-81.22140625 99.1121875 -81.22140625 99.1121875 -82.13671875 98.0390625 C-84.18194438 93.08746361 -84.5369312 87.36619189 -82.6159668 82.29394531 C-80.19034434 77.11138972 -76.94413646 72.88466445 -73.26171875 68.5390625 C-72.09274594 67.13104132 -70.92479385 65.72217216 -69.7578125 64.3125 C-69.17757324 63.61479492 -68.59733398 62.91708984 -67.99951172 62.19824219 C-65.5537118 59.22849504 -63.18614401 56.20063641 -60.82421875 53.1640625 C-56.34629532 47.42674871 -51.77074815 41.7742129 -47.16894531 36.13598633 C-43.59036414 31.74365581 -40.06351481 27.31507446 -36.57421875 22.8515625 C-14.55828699 -5.23608977 -14.55828699 -5.23608977 0 0 Z " fill="#A018F4" transform="translate(548.32421875,209.8359375)"/>
</svg>
